<svg xmlns="http://www.w3.org/2000/svg" viewBox="0 0 95 93">
  <g fill-rule="evenodd">
    <path
      d="M47.69 38.07L23.84 51.84 0 38.07V27.53L47.69 0l47.69 27.53v10.54L71.53 51.84 47.69 38.07zM9.12 32.8l14.72 8.5 23.85-13.77L71.53 41.3l14.73-8.5-38.57-22.27z"
      fill="#fcb11a"></path>
    <path fill="#a5a5a5"
      d="M47.69 59.14L23.84 72.9 0 59.14V48.6l23.84 13.77L47.69 48.6l23.84 13.77L95.38 48.6v10.54L71.53 72.9 47.69 59.14z"></path>
    <path fill="#a5a5a5"
      d="M47.69 80.21L23.84 93.97 0 80.21V69.67l23.84 13.77 23.85-13.77 23.84 13.77 23.85-13.77v10.54L71.53 93.97 47.69 80.21z"></path>
  </g>
</svg>